<svg viewBox="0 0 1280 384" xmlns="http://www.w3.org/2000/svg" role="img" aria-label="Nomana">
  <defs>
    <linearGradient id="line" gradientUnits="userSpaceOnUse" x1="336" y1="736" x2="688" y2="288">
      <stop offset="0%" stop-color="#0A84FF"/>
      <stop offset="50%" stop-color="#5AC8FA"/>
      <stop offset="100%" stop-color="#BF5AF2"/>
    </linearGradient>
    <linearGradient id="accent" x1="0" y1="0" x2="1" y2="0">
      <stop offset="0%" stop-color="#0A84FF"/>
      <stop offset="100%" stop-color="#BF5AF2"/>
    </linearGradient>
    <radialGradient id="nodeBlue" cx="0.35" cy="0.3" r="0.85">
      <stop offset="0%" stop-color="#7FC2FF"/>
      <stop offset="40%" stop-color="#0A84FF"/>
      <stop offset="100%" stop-color="#003F8C"/>
    </radialGradient>
    <radialGradient id="nodePurple" cx="0.35" cy="0.3" r="0.85">
      <stop offset="0%" stop-color="#E0A8FF"/>
      <stop offset="40%" stop-color="#BF5AF2"/>
      <stop offset="100%" stop-color="#6E2EAE"/>
    </radialGradient>
    <filter id="lineSoftGlow" x="-20%" y="-20%" width="140%" height="140%">
      <feGaussianBlur stdDeviation="6"/>
    </filter>
    <filter id="nodeShadow" x="-30%" y="-30%" width="160%" height="160%">
      <feGaussianBlur stdDeviation="3"/>
    </filter>
    <style>
      .wm-text { fill: #0B0D12; }
      .wm-sub  { fill: #5A6478; }
    </style>
  </defs>

  <g transform="translate(32 32) scale(0.3125)">
    <g filter="url(#lineSoftGlow)" opacity="0.35">
      <line x1="336" y1="288" x2="688" y2="736" stroke="url(#line)" stroke-width="18" stroke-linecap="round"/>
    </g>
    <line x1="336" y1="288" x2="688" y2="736" stroke="url(#line)" stroke-width="14" stroke-linecap="round"/>

    <g filter="url(#nodeShadow)" opacity="0.30">
      <circle cx="336" cy="294" r="44" fill="#000"/>
      <circle cx="336" cy="742" r="44" fill="#000"/>
      <circle cx="688" cy="294" r="44" fill="#000"/>
      <circle cx="688" cy="742" r="44" fill="#000"/>
    </g>

    <g>
      <circle cx="336" cy="288" r="42" fill="url(#nodeBlue)"/>
      <circle cx="336" cy="288" r="42" fill="none" stroke="rgba(0,0,0,0.12)" stroke-width="2"/>
      <ellipse cx="324" cy="274" rx="14" ry="9" fill="#FFFFFF" opacity="0.55"/>
      <circle cx="318" cy="270" r="3.5" fill="#FFFFFF" opacity="0.9"/>
    </g>
    <g>
      <circle cx="336" cy="736" r="42" fill="url(#nodeBlue)"/>
      <circle cx="336" cy="736" r="42" fill="none" stroke="rgba(0,0,0,0.12)" stroke-width="2"/>
      <ellipse cx="324" cy="722" rx="14" ry="9" fill="#FFFFFF" opacity="0.55"/>
      <circle cx="318" cy="718" r="3.5" fill="#FFFFFF" opacity="0.9"/>
    </g>
    <g>
      <circle cx="688" cy="288" r="42" fill="url(#nodePurple)"/>
      <circle cx="688" cy="288" r="42" fill="none" stroke="rgba(0,0,0,0.12)" stroke-width="2"/>
      <ellipse cx="676" cy="274" rx="14" ry="9" fill="#FFFFFF" opacity="0.55"/>
      <circle cx="670" cy="270" r="3.5" fill="#FFFFFF" opacity="0.9"/>
    </g>
    <g>
      <circle cx="688" cy="736" r="42" fill="url(#nodePurple)"/>
      <circle cx="688" cy="736" r="42" fill="none" stroke="rgba(0,0,0,0.12)" stroke-width="2"/>
      <ellipse cx="676" cy="722" rx="14" ry="9" fill="#FFFFFF" opacity="0.55"/>
      <circle cx="670" cy="718" r="3.5" fill="#FFFFFF" opacity="0.9"/>
    </g>
  </g>

  <text x="312" y="214" font-family="'Helvetica Neue', Helvetica, Arial, sans-serif" font-weight="700" font-size="148" letter-spacing="-3" dominant-baseline="alphabetic" class="wm-text">Nomana-IT</text>
  <rect x="314" y="238" width="132" height="5" rx="2.5" fill="url(#accent)"/>
  <text x="314" y="284" font-family="'Helvetica Neue', Helvetica, Arial, sans-serif" font-weight="500" font-size="26" letter-spacing="6" dominant-baseline="alphabetic" class="wm-sub">INNOVATIVE&#160;&#160;DEVELOPMENT</text>
</svg>
